<svg id="voters" enable-background="new 0 0 300 300" height="512" viewBox="0 0 300 300" width="512" xmlns="http://www.w3.org/2000/svg"><g><circle cx="129.999" cy="146.943" fill="#e5efef" r="92"/><g><path d="m177.998 94.943h80v48h-80z" fill="#9dc1e4" transform="matrix(.941 .337 -.337 .941 52.922 -66.585)"/><path d="m247.553 159.034c-.449 0-.902-.076-1.352-.236l-75.309-26.994c-.996-.357-1.812-1.098-2.266-2.057-.453-.961-.508-2.061-.148-3.059l16.199-45.186c.746-2.08 3.027-3.164 5.117-2.416l75.309 26.994c.996.357 1.812 1.098 2.266 2.057.453.961.508 2.061.148 3.059l-16.199 45.186c-.585 1.633-2.124 2.652-3.765 2.652zm-70.191-33.412 67.777 24.295 13.496-37.654-67.777-24.295z" fill="#4c241d"/></g><path d="m177.999 218.945c-.5 0-1.008-.096-1.5-.295-2.051-.828-3.035-3.16-2.207-5.209l30-74.09c.828-2.049 3.16-3.033 5.207-2.205 2.051.828 3.035 3.16 2.207 5.209l-30 74.09c-.629 1.554-2.129 2.5-3.707 2.5z" fill="#4c241d"/><path d="m118.001 218.945c-1.582 0-3.08-.945-3.709-2.5l-30-74.09c-.83-2.049.158-4.381 2.205-5.209 2.045-.828 4.381.158 5.209 2.205l30 74.09c.83 2.049-.158 4.381-2.205 5.209-.493.199-1 .295-1.5.295z" fill="#4c241d"/><g><circle cx="115.999" cy="160.943" fill="#e7d1c4" r="14"/><path d="m115.999 178.943c-9.926 0-18-8.074-18-18s8.074-18 18-18 18 8.074 18 18-8.075 18-18 18zm0-28c-5.514 0-10 4.486-10 10s4.486 10 10 10 10-4.486 10-10-4.487-10-10-10z" fill="#4c241d"/></g><g><path d="m137.999 250.943h-44v-54c0-12.15 9.85-22 22-22 12.15 0 22 9.85 22 22z" fill="#e7d1c4"/><path d="m137.999 254.943h-44c-2.209 0-4-1.791-4-4v-54c0-14.336 11.664-26 26-26s26 11.664 26 26v54c0 2.209-1.789 4-4 4zm-40-8h36v-50c0-9.926-8.074-18-18-18s-18 8.074-18 18z" fill="#4c241d"/></g><g><circle cx="179.999" cy="160.943" fill="#e7d1c4" r="14"/><path d="m179.999 178.943c-9.926 0-18-8.074-18-18s8.074-18 18-18 18 8.074 18 18-8.075 18-18 18zm0-28c-5.516 0-10 4.486-10 10s4.484 10 10 10 10-4.486 10-10-4.485-10-10-10z" fill="#4c241d"/></g><g><path d="m201.999 250.943h-44v-54c0-12.15 9.85-22 22-22 12.15 0 22 9.85 22 22z" fill="#e7d1c4"/><path d="m201.999 254.943h-44c-2.211 0-4-1.791-4-4v-54c0-14.336 11.664-26 26-26s26 11.664 26 26v54c0 2.209-1.789 4-4 4zm-40-8h36v-50c0-9.926-8.074-18-18-18s-18 8.074-18 18z" fill="#4c241d"/></g><g><path d="m109.999 250.943h-44v-30c0-12.15 9.85-22 22-22 12.15 0 22 9.85 22 22z" fill="#fff"/><path d="m109.999 254.943h-44c-2.209 0-4-1.791-4-4v-30c0-14.336 11.664-26 26-26s26 11.664 26 26v30c0 2.209-1.791 4-4 4zm-40-8h36v-26c0-9.926-8.074-18-18-18s-18 8.074-18 18z" fill="#4c241d"/></g><g><circle cx="147.999" cy="184.943" fill="#fff" r="14"/><path d="m147.999 202.943c-9.926 0-18-8.074-18-18s8.074-18 18-18 18 8.074 18 18-8.075 18-18 18zm0-28c-5.516 0-10 4.486-10 10s4.484 10 10 10 10-4.486 10-10-4.485-10-10-10z" fill="#4c241d"/></g><g><path d="m169.999 250.943h-44v-30c0-12.15 9.85-22 22-22 12.15 0 22 9.85 22 22z" fill="#fff"/><path d="m169.999 254.943h-44c-2.209 0-4-1.791-4-4v-30c0-14.336 11.664-26 26-26s26 11.664 26 26v30c0 2.209-1.789 4-4 4zm-40-8h36v-26c0-9.926-8.074-18-18-18s-18 8.074-18 18z" fill="#4c241d"/></g><g><circle cx="87.999" cy="184.943" fill="#fff" r="14"/><path d="m87.999 202.943c-9.926 0-18-8.074-18-18s8.074-18 18-18 18 8.074 18 18-8.075 18-18 18zm0-28c-5.514 0-10 4.486-10 10s4.486 10 10 10 10-4.486 10-10-4.487-10-10-10z" fill="#4c241d"/></g><g><circle cx="207.999" cy="184.943" fill="#fff" r="14"/><path d="m207.999 202.943c-9.926 0-18-8.074-18-18s8.074-18 18-18 18 8.074 18 18-8.075 18-18 18zm0-28c-5.516 0-10 4.486-10 10s4.484 10 10 10 10-4.486 10-10-4.485-10-10-10z" fill="#4c241d"/></g><g><path d="m229.999 250.943h-44v-30c0-12.15 9.85-22 22-22 12.15 0 22 9.85 22 22z" fill="#fff"/><path d="m229.999 254.943h-44c-2.211 0-4-1.791-4-4v-30c0-14.336 11.664-26 26-26s26 11.664 26 26v30c0 2.209-1.789 4-4 4zm-40-8h36v-26c0-9.926-8.074-18-18-18s-18 8.074-18 18z" fill="#4c241d"/></g><g><path d="m41.998 94.943h80v48h-80z" fill="#fff" transform="matrix(-.941 .337 -.337 -.941 199.324 203.239)"/><path d="m52.444 159.034c-1.641 0-3.18-1.018-3.766-2.652l-16.197-45.186c-.357-.998-.305-2.098.148-3.059.453-.959 1.27-1.699 2.268-2.057l75.307-26.994c2.076-.75 4.371.336 5.115 2.416l16.197 45.186c.357.998.305 2.098-.148 3.059-.453.959-1.27 1.699-2.268 2.057l-75.307 26.994c-.445.16-.902.236-1.349.236zm-11.082-46.771 13.498 37.654 67.775-24.295-13.498-37.654z" fill="#4c241d"/></g><g fill="#4c241d"><path d="m145.999 66.943c-2.211 0-4-1.791-4-4v-8c0-2.209 1.789-4 4-4s4 1.791 4 4v8c0 2.209-1.789 4-4 4z"/><path d="m145.999 90.943c-2.211 0-4-1.791-4-4v-8c0-2.209 1.789-4 4-4s4 1.791 4 4v8c0 2.209-1.789 4-4 4z"/><path d="m137.999 74.943h-8c-2.209 0-4-1.791-4-4s1.791-4 4-4h8c2.211 0 4 1.791 4 4s-1.789 4-4 4z"/><path d="m161.999 74.943h-8c-2.211 0-4-1.791-4-4s1.789-4 4-4h8c2.211 0 4 1.791 4 4s-1.789 4-4 4z"/><path d="m247.999 74.943c-7.719 0-14-6.281-14-14s6.281-14 14-14 14 6.281 14 14-6.282 14-14 14zm0-20c-3.309 0-6 2.691-6 6s2.691 6 6 6 6-2.691 6-6-2.692-6-6-6z"/><path d="m46.603 49.334c0 2.362-1.914 4.277-4.276 4.277s-4.276-1.915-4.276-4.277 1.914-4.276 4.276-4.276 4.276 1.914 4.276 4.276z"/></g><g><path d="m205.999 106.943 32 12" fill="#e66353"/><path d="m237.999 122.945c-.469 0-.941-.084-1.406-.256l-32-12c-2.066-.777-3.113-3.082-2.34-5.15.777-2.07 3.086-3.113 5.152-2.342l32 12c2.066.777 3.113 3.082 2.34 5.15-.602 1.605-2.129 2.598-3.746 2.598z" fill="#4c241d"/></g><g><path d="m199.235 119.977 32 12" fill="#e66353"/><path d="m231.233 135.978c-.469 0-.941-.084-1.406-.256l-32-12c-2.066-.777-3.113-3.082-2.34-5.15.773-2.072 3.078-3.109 5.152-2.342l32 12c2.066.777 3.113 3.082 2.34 5.15-.601 1.606-2.129 2.598-3.746 2.598z" fill="#4c241d"/></g><g><path d="m83.578 126.861 8.088.945-4.17-6.995 3.399-7.4-7.941 1.804-5.988-5.518-.738 8.109-7.099 3.989 7.484 3.208 1.601 7.985z" fill="#e66353"/><path d="m78.213 136.988c-.344 0-.689-.045-1.031-.135-1.471-.393-2.592-1.586-2.891-3.08l-1.188-5.922-5.551-2.379c-1.398-.6-2.336-1.941-2.418-3.461-.082-1.521.707-2.955 2.033-3.701l5.266-2.961.547-6.016c.139-1.516 1.125-2.822 2.547-3.369 1.418-.545 3.025-.242 4.148.791l4.441 4.094 5.891-1.338c1.482-.336 3.033.197 3.992 1.379s1.164 2.807.529 4.191l-2.52 5.488 3.092 5.188c.779 1.309.75 2.945-.078 4.223s-2.316 1.963-3.822 1.799l-5.998-.701-3.98 4.545c-.77.88-1.872 1.365-3.009 1.365zm-.058-15.676.035.016c1.209.518 2.088 1.6 2.346 2.891l.008.037.025-.029c.869-.99 2.162-1.479 3.475-1.338l.037.004-.02-.031c-.674-1.131-.748-2.521-.199-3.719l.016-.033-.037.008c-1.287.295-2.629-.066-3.598-.959l-.029-.027-.002.039c-.121 1.311-.877 2.479-2.023 3.123z" fill="#4c241d"/></g></g></svg>